# xmcd
#
# Track frame offsets:
#	182
#	14040
#	29812
#	44302
#	57887
#	72520
#	85560
#	101045
#	114665
#	128280
#	143602
#	158332
#	171802
#	187357
#	203097
#	214947
#
# Disc length: 3056 seconds
#
# Revision: 5
# Processed by: cddbd v1.5.2PL0 Copyright (c) Steve Scherf et al.
# Submitted via: audiograbber 1.83.01
#
DISCID=e20bee10
DTITLE=Bessie Smith - Classic Blues - The Blues Collection 9
DYEAR=1994
DGENRE=Jazz
TTITLE0=Alexander's Ragtime Band
TTITLE1=Careless Love
TTITLE2=Cake Walkin' Babies From Home
TTITLE3=After You've Gone
TTITLE4=Trombone Cholly
TTITLE5=Me And My Gin
TTITLE6=Safety Mama
TTITLE7=In The House Blues
TTITLE8=Nobody Knows You When You're Down And Out
TTITLE9=Take It Right Back
TTITLE10=He's Got Me Goin'
TTITLE11=Kitchen Man
TTITLE12=Do Your Duty
TTITLE13=Gimme A Pigfoot
TTITLE14=Take Me For A Buggy Ride
TTITLE15=I'm Down In The Dumps
EXTD=
EXTT0=Jahr 1927
EXTT1=Jahr 1925
EXTT2=Jahr 1925
EXTT3=Jahr 1927
EXTT4=Jahr 1927
EXTT5=Jahr 1928
EXTT6=Jahr 1931
EXTT7=Jahr 1931
EXTT8=Jahr 1929
EXTT9=Jahr 1929
EXTT10=Jahr 1929
EXTT11=Jahr 1929
EXTT12=Jahr 1933
EXTT13=Jahr 1933
EXTT14=Jahr 1933
EXTT15=Jahr 1933
PLAYORDER=
